HIERARCHY
ROOT Hips
{
	OFFSET 0.00000 0.00000 0.00000
	CHANNELS 6 Xposition Yposition Zposition Yrotation Zrotation Xrotation 
	JOINT Lumbar
	{
		OFFSET 0 0 0
		CHANNELS 3 Zrotation Xrotation Yrotation
		JOINT Neck
		{
			OFFSET 0.00 0.2701 0.00
			CHANNELS 3 Zrotation Xrotation Yrotation
			End Site
			{
				OFFSET 0.00 0.1379 0.00
			}
		}
		JOINT RightShoulder
		{
			OFFSET 0.0119 0.2289 0.1181
			CHANNELS 3 Zrotation Xrotation Yrotation
			JOINT RightElbow
			{
				OFFSET 0.00 -0.1475 0.00
				CHANNELS 2 Zrotation Yrotation
				JOINT RightWrist
				{
					OFFSET 0.00 -0.1605 0.00
					CHANNELS 2 Zrotation Xrotation
					End Site
					{
						OFFSET 0.0040 -0.1068 0.0006
					}
				}
			}
		}
		JOINT LeftShoulder
		{
			OFFSET 0.0119 0.2289 -0.1181
			CHANNELS 3 Zrotation Xrotation Yrotation
			JOINT LeftElbow
			{
				OFFSET 0.00 -0.1475 0.00
				CHANNELS 2 Zrotation Yrotation
				JOINT LeftWrist
				{
					OFFSET 0.00 -0.1605 0.00
					CHANNELS 2 Zrotation Xrotation
					End Site
					{
						OFFSET 0.0040 -0.1068 -0.0006
					}
				}
			}
		}
	}
	JOINT RightHip
	{
		OFFSET 0.0316 -0.0424 0.0458
		CHANNELS 3 Zrotation Xrotation Yrotation
		JOINT RightKnee
		{
			OFFSET 0.00 -0.2438 0.00
			CHANNELS 1 Zrotation
			JOINT RightAnkle
			{
				OFFSET 0.00 -0.2449 0.00
				CHANNELS 3 Zrotation Xrotation Yrotation
				End Site
				{
					OFFSET 0.1237 -0.0542 0.0051
				}
			}
		}
	}
	JOINT LeftHip
	{
		OFFSET 0.0316 -0.0424 -0.0458
		CHANNELS 3 Zrotation Xrotation Yrotation
		JOINT LeftKnee
		{
			OFFSET 0.00 -0.2438 0.00
			CHANNELS 1 Zrotation
			JOINT LeftAnkle
			{
				OFFSET 0.00 -0.2449 0.00
				CHANNELS 3 Zrotation Xrotation Yrotation
				End Site
				{
					OFFSET 0.1237 -0.0542 -0.0051
				}
			}
		}
	}
}
MOTION
Frames: 16
Frame Time: 0.02
-1.46305 0.57551 0.63868 1049.25988 0 -6.32905 -37.3338 1.60218 -34.28449 -35.76245 20.30464 16.12601 40.20925 -60.22782 -7.91815 133.7537 118.57122 -71.07688 -7.38728 57.73267 8.18783 -7.66432 18.13781 -108.23267 -13.87714 10.38507 19.44754 10.53257 -4.38801 -5.12304 -16.95387 -1.16935 -5.55833 -0.16387 -2.68828 8.16707 -28.517 9.07056 3.10565 2.66622
-1.45353 0.57661 0.64468 1049.55307 0 -6.51274 -37.77629 1.58242 -34.32238 -35.90436 20.41224 16.83117 39.81862 -60.4992 -8.34956 133.73787 118.16764 -70.93673 -7.29682 56.08369 6.93236 -6.79311 17.39028 -105.90801 -12.75023 10.17857 19.40055 10.69215 -4.21525 -6.59484 -17.52299 -1.1022 -5.80535 0.55211 -1.83569 8.64518 -31.49072 8.12075 2.52432 1.34904
-1.44438 0.57837 0.65054 1049.63268 0 -6.82139 -38.38618 1.50232 -34.35247 -35.98587 20.55883 17.76022 39.62303 -60.82918 -8.52088 133.72195 117.73076 -70.77241 -7.19883 54.1015 5.66815 -5.52743 16.57681 -103.29826 -11.58069 9.8868 19.46905 10.93593 -3.72951 -8.39638 -18.11059 -1.04454 -5.9987 1.7084 -0.73027 9.15214 -35.06727 6.73704 1.9035 -0.01756
-1.43508 0.57984 0.65644 1049.82039 0 -7.06057 -38.91029 1.44383 -34.37807 -36.09533 20.68628 18.56902 39.34536 -61.12991 -8.8082 133.70684 117.31157 -70.62684 -7.10696 52.28242 4.41731 -4.41803 15.78692 -100.82703 -10.44104 9.6221 19.4638 11.13129 -3.38653 -10.01759 -18.66025 -0.98382 -6.2335 2.67344 0.24162 9.61218 -38.34668 5.55867 1.31886 -1.33211
-1.42569 0.58129 0.66244 1049.96177 0 -7.35505 -39.47686 1.4112 -34.43503 -36.20452 20.82087 19.45827 39.0411 -61.44121 -9.10507 133.68849 116.88091 -70.44932 -7.00412 50.40637 3.11964 -3.39509 15.01577 -98.29364 -9.24366 9.40474 19.54682 11.37117 -3.02383 -11.79262 -19.33808 -0.91553 -6.42133 3.60236 1.29749 10.21689 -41.74023 4.33751 0.65184 -2.78267
-1.41657 0.58293 0.66819 1050.15011 0 -7.56312 -39.99316 1.3104 -34.4265 -36.29969 20.94935 20.23253 38.83616 -61.74537 -9.32299 133.67682 116.46677 -70.33158 -6.92189 48.57331 1.92073 -2.1062 14.19515 -95.83618 -8.16283 9.07104 19.4737 11.53706 -2.63569 -13.31605 -19.7519 -0.86626 -6.68447 4.70993 2.23562 10.52667 -45.0222 3.1109 0.14962 -3.95106
-1.4081 0.58494 0.67328 1050.50416 0 -7.50522 -40.34185 1.02969 -34.22997 -36.36509 21.05197 20.63042 38.88252 -62.00527 -9.35103 133.68426 116.1032 -70.39328 -6.90213 46.93482 0.99083 -0.13567 13.22909 -93.59929 -7.39843 8.41519 18.94452 11.48603 -2.24072 -14.062 -19.43335 -0.86564 -7.17022 6.2108 2.79688 10.01187 -47.97691 1.90905 0.10556 -4.40868
-1.39989 0.58711 0.67811 1050.91547 0 -7.35549 -40.63162 0.6835 -33.96947 -36.41923 21.1467 20.90508 39.01795 -62.25737 -9.31433 133.69832 115.75824 -70.51421 -6.90276 45.35375 0.16311 2.07794 12.22132 -91.46268 -6.75748 7.64931 18.25386 11.35622 -1.83591 -14.54018 -18.84771 -0.88443 -7.72946 7.87405 3.22851 9.20004 -50.77108 0.72844 0.23038 -4.56678
-1.39156 0.58921 0.68304 1051.31115 0 -7.24518 -40.94063 0.37111 -33.74485 -36.48201 21.24477 21.23863 39.0961 -62.5202 -9.33055 133.70896 115.40668 -70.6027 -6.89152 43.75038 -0.70717 4.15305 11.24952 -89.32096 -6.07205 6.94795 17.63513 11.25683 -1.44635 -15.13862 -18.38321 -0.89564 -8.25088 9.45872 3.71204 8.52524 -53.55771 -0.41676 0.28317 -4.80653
-1.38326 0.59134 0.68804 1051.65616 0 -7.14799 -41.28823 0.03914 -33.49239 -36.52783 21.34592 21.56846 39.25066 -62.75648 -9.24015 133.72134 115.04536 -70.7144 -6.89066 42.11682 -1.59608 6.36813 10.2023 -86.99662 -5.33571 6.18203 17.02642 11.18224 -0.99932 -15.75487 -17.92073 -0.90186 -8.79086 11.08188 4.23354 7.84072 -56.71724 -1.7633 0.31554 -5.27102
-1.37496 0.59342 0.69284 1052.1223 0 -7.0013 -41.53811 -0.26626 -33.28134 -36.60712 21.43741 21.87309 39.2663 -63.04328 -9.35781 133.73166 114.71016 -70.79123 -6.87356 40.56714 -2.41946 8.3345 9.30462 -85.08212 -4.73548 5.52595 16.35717 11.03729 -0.67471 -16.26627 -17.39001 -0.92301 -9.30859 12.65404 4.64253 7.10822 -59.03911 -2.6849 0.42987 -5.20442
-1.36666 0.59535 0.69719 1052.91567 0 -6.72934 -41.5412 -0.48678 -33.21292 -36.78268 21.51107 22.14385 38.86448 -63.49008 -10.08284 133.73474 114.43487 -70.76527 -6.80303 39.21305 -3.10647 9.63636 8.81785 -84.26135 -4.48077 5.19726 15.55825 10.70772 -0.68441 -16.54901 -16.73891 -0.98032 -9.76003 14.07306 4.7656 6.29522 -59.20846 -2.39182 0.73976 -3.66899
-1.35837 0.59721 0.70134 1053.82807 0 -6.41253 -41.44533 -0.67715 -33.18596 -36.99321 21.57363 22.39162 38.32287 -63.98434 -11.01648 133.73552 114.187 -70.70102 -6.71623 37.94821 -3.72745 10.66286 8.48557 -83.85355 -4.35923 4.98386 14.70383 10.31173 -0.81997 -16.7347 -16.02782 -1.05203 -10.18418 15.42658 4.78008 5.44982 -58.51271 -1.67835 1.12437 -1.62392
-1.35006 0.59908 0.70556 1054.68355 0 -6.12241 -41.3885 -0.87809 -33.13194 -37.18633 21.63672 22.64476 37.8499 -64.44426 -11.84622 133.73727 113.93156 -70.64892 -6.63919 36.65735 -4.3656 11.75902 8.091 -83.26702 -4.17686 4.71995 13.87547 9.95159 -0.90417 -16.966 -15.34216 -1.11727 -10.6125 16.79148 4.84733 4.63025 -58.1329 -1.18553 1.46833 0.13933
-1.34181 0.60107 0.70988 1055.55578 0 -5.80103 -41.35555 -1.09463 -33.11086 -37.38222 21.71924 22.91398 37.35113 -64.95745 -12.71663 133.7395 113.65538 -70.62017 -6.55258 35.30272 -5.0539 13.09563 7.66177 -82.64614 -3.99942 4.44415 13.03779 9.56353 -0.96507 -17.1814 -14.65454 -1.18272 -11.07845 18.24507 4.89509 3.74561 -58.08182 -0.56702 1.84721 2.12761
-1.33342 0.60277 0.71395 1056.41695 0 -5.53716 -41.24909 -1.2706 -33.03124 -37.5848 21.75799 23.14734 36.88103 -65.37161 -13.54688 133.74018 113.42958 -70.53402 -6.48212 34.10663 -5.62403 13.86594 7.34161 -82.19347 -3.84255 4.222 12.20873 9.2205 -1.10218 -17.41082 -13.96073 -1.2511 -11.45815 19.48978 4.96016 3.00249 -57.13265 -0.11102 2.16789 3.76104
